Coordinates
version=1
nRows=13
nColumns=40
inDegrees=yes

Units are S.I. units (second, meters, Newtons, ...)
Angles are in degrees.

endheader
time	pelvis_tilt	pelvis_list	pelvis_rotation	pelvis_tx	pelvis_ty	pelvis_tz	hip_flexion_r	hip_adduction_r	hip_rotation_r	knee_angle_r	knee_angle_r_beta	ankle_angle_r	subtalar_angle_r	mtp_angle_r	hip_flexion_l	hip_adduction_l	hip_rotation_l	knee_angle_l	knee_angle_l_beta	ankle_angle_l	subtalar_angle_l	mtp_angle_l	lumbar_extension	lumbar_bending	lumbar_rotation	arm_flex_r	arm_add_r	arm_rot_r	elbow_flex_r	pro_sup_r	wrist_flex_r	wrist_dev_r	arm_flex_l	arm_add_l	arm_rot_l	elbow_flex_l	pro_sup_l	wrist_flex_l	wrist_dev_l
      1.39000000	     -3.33186502	     -2.69051517	      2.07467789	     -0.06007746	      0.88873294	      1.08518938	     17.58761233	      3.66347390	    -10.71620257	    -26.10503100	     -0.45561874	      8.05491625	     -8.01344778	      6.27503403	     19.49457386	      6.32938481	      3.82970630	    -69.14175961	     -1.20675136	      2.70685718	     18.62000586	     19.47334454	     -1.90729704	      2.88041989	     -6.80104406	     -1.47946407	     -8.71651284	    -16.71897373	     27.14470557	     89.95437384	      0.00000000	      0.00000000	     -1.60044674	      7.97483967	     23.81310950	     32.00445715	     89.95437384	      0.00000000	      0.00000000
      1.40000000	     -3.31306225	     -2.56205918	      1.82479283	     -0.05406364	      0.88912328	      1.08615447	     17.02588507	      3.68856962	    -10.46511542	    -25.92331502	     -0.45244720	      8.37962650	     -7.91481079	      6.13686191	     20.41064344	      6.21595119	      4.02879000	    -69.33633081	     -1.21014726	      3.75159588	     18.58283569	     19.29731237	     -2.01787714	      2.73064628	     -6.48575018	     -1.14307497	     -8.76274281	    -16.63507399	     27.42715481	     89.95437384	      0.00000000	      0.00000000	     -1.72832133	      7.87233801	     23.77067787	     31.36029430	     89.95437384	      0.00000000	      0.00000000
      1.41000000	     -3.30429257	     -2.44841499	      1.60464863	     -0.04818119	      0.88947193	      1.08703273	     16.47031796	      3.69563861	    -10.33832943	    -25.71794238	     -0.44886277	      8.70990353	     -7.78110280	      5.99604337	     21.34222758	      6.09994771	      4.19220327	    -69.31560295	     -1.20978549	      4.59110103	     18.58546327	     19.11142217	     -2.13076470	      2.59285012	     -6.21685766	     -0.80359627	     -8.80921221	    -16.52055963	     27.72623340	     89.95437384	      0.00000000	      0.00000000	     -1.91129880	      7.79467012	     23.71271245	     30.86388081	     89.95437384	      0.00000000	      0.00000000
      1.42000000	     -3.31033403	     -2.31264816	      1.44824518	     -0.04228881	      0.88974698	      1.08780675	     15.94734643	      3.61990261	    -10.35025485	    -25.55058481	     -0.44594183	      8.93206262	     -7.66136825	      5.88087504	     22.28778552	      6.00586857	      4.41564533	    -69.13253955	     -1.20659044	      5.08383519	     18.59806720	     18.88597218	     -2.21058004	      2.41585913	     -6.04300984	     -0.44283398	     -8.84240482	    -16.40274470	     28.03256410	     89.95437384	      0.00000000	      0.00000000	     -2.15739631	      7.72144030	     23.61239941	     30.43101364	     89.95437384	      0.00000000	      0.00000000
      1.43000000	     -3.33940015	     -2.20092398	      1.28239365	     -0.03651786	      0.89004038	      1.08849649	     15.39250846	      3.63023756	    -10.12000827	    -25.25449153	     -0.44077403	      9.32393432	     -7.43169898	      5.71219172	     23.19501586	      5.78900315	      4.41238412	    -68.73603875	     -1.19967019	      6.33862426	     18.49285236	     18.61754110	     -2.28841223	      2.29638415	     -5.80461102	     -0.13905121	     -8.89051770	    -16.29761644	     28.38799535	     89.95437384	      0.00000000	      0.00000000	     -2.25223962	      7.65491743	     23.51983876	     29.76403832	     89.95437384	      0.00000000	      0.00000000
      1.44000000	     -3.32593852	     -2.09648913	      1.08157684	     -0.03059200	      0.89031318	      1.08916824	     14.80726260	      3.60707872	     -9.97342247	    -25.02410000	     -0.43675294	      9.65025831	     -7.17599673	      5.52932904	     23.99714278	      5.67109053	      4.58938136	    -68.17771110	     -1.18992554	      7.36951167	     18.51422697	     18.43528605	     -2.38285067	      2.17101865	     -5.57698423	      0.13025557	     -8.92121490	    -16.22165943	     28.85517710	     89.95437384	      0.00000000	      0.00000000	     -2.43522551	      7.60369538	     23.42223925	     29.21209345	     89.95437384	      0.00000000	      0.00000000
      1.45000000	     -3.38113859	     -2.02809680	      0.94965313	     -0.02470281	      0.89042532	      1.08979935	     14.35058880	      3.58479998	    -10.04988034	    -24.87780946	     -0.43419969	      9.88425347	     -7.06130316	      5.39648350	     24.89506530	      5.63291689	      4.77143993	    -67.44247987	     -1.17709333	      7.95592436	     18.57886355	     18.25177286	     -2.40369239	      2.06854104	     -5.40646315	      0.40063462	     -8.94052659	    -16.16439910	     29.26412964	     89.95437384	      0.00000000	      0.00000000	     -2.70137949	      7.53417522	     23.32730703	     28.88375750	     89.95437384	      0.00000000	      0.00000000
      1.46000000	     -3.43634057	     -1.96219718	      0.84312220	     -0.01887513	      0.89053338	      1.09035591	     13.87732980	      3.58621060	     -9.99286771	    -24.67238961	     -0.43061443	     10.19036548	     -6.90406515	      5.24333707	     25.75218938	      5.54143103	      4.89431948	    -66.54690944	     -1.16146268	      8.67504793	     18.65175849	     18.10467887	     -2.43179253	      1.97313666	     -5.25296437	      0.63584014	     -8.94834556	    -16.13487555	     29.74493185	     89.95437384	      0.00000000	      0.00000000	     -2.91997192	      7.47693565	     23.22053861	     28.47914628	     89.95437384	      0.00000000	      0.00000000
      1.47000000	     -3.44943610	     -1.82866623	      0.73239070	     -0.01307313	      0.89065085	      1.09080232	     13.34229569	      3.52773427	     -9.76477724	    -24.45515863	     -0.42682304	     10.55445650	     -6.71079269	      5.04449788	     26.49674460	      5.41148208	      5.10022329	    -65.49171657	     -1.14304609	      9.53231330	     18.73300743	     18.08011352	     -2.51899923	      1.81373592	     -5.06439739	      0.77424168	     -8.95511552	    -16.14317078	     30.44423755	     89.95437384	      0.00000000	      0.00000000	     -3.07476138	      7.45366022	     23.09607396	     28.03988168	     89.95437384	      0.00000000	      0.00000000
      1.48000000	     -3.53867616	     -1.80354173	      0.63485758	     -0.00722901	      0.89062992	      1.09131170	     12.94623546	      3.54202005	     -9.83983120	    -24.34760492	     -0.42494587	     10.77005966	     -6.62069403	      4.91283783	     27.33086699	      5.44033085	      5.30441597	    -64.30903493	     -1.12240440	      9.95094143	     18.77579356	     17.97986782	     -2.49997624	      1.75784078	     -4.92151415	      0.97611996	     -8.96266047	    -16.10422342	     30.96714199	     89.95437384	      0.00000000	      0.00000000	     -3.37610496	      7.38317910	     22.99290067	     27.80647465	     89.95437384	      0.00000000	      0.00000000
      1.49000000	     -3.57851752	     -1.67971142	      0.54255472	     -0.00141097	      0.89064041	      1.09163606	     12.42362307	      3.48624261	     -9.68616080	    -24.09702611	     -0.42057245	     11.19925846	     -6.52208706	      4.73596339	     28.01840180	      5.30934574	      5.50115043	    -62.96116714	     -1.09887967	     10.61339271	     18.80267644	     17.98827557	     -2.55710889	      1.58422261	     -4.73800571	      1.08448790	     -8.96976193	    -16.10702073	     31.66592139	     89.95437384	      0.00000000	      0.00000000	     -3.56765548	      7.35422258	     22.91107896	     27.50400424	     89.95437384	      0.00000000	      0.00000000
      1.50000000	     -3.38488663	     -1.45446028	      0.39594805	      0.00450050	      0.89107093	      1.09192248	     11.67125953	      3.31056057	     -9.48356633	    -23.92295693	     -0.41753437	     11.52456328	     -6.39989149	      4.47195082	     28.33162266	      5.13662175	      5.91493718	    -61.36090076	     -1.07094975	     11.26198805	     18.80539077	     18.37977327	     -2.89617702	      1.32848395	     -4.47824482	      1.16595366	     -8.93745174	    -16.16601340	     32.47538207	     89.95437384	      0.00000000	      0.00000000	     -3.64934704	      7.33977317	     22.81365717	     27.08178782	     89.95437384	      0.00000000	      0.00000000
      1.51000000	     -3.56002038	     -1.50177653	      0.38182396	      0.01014444	      0.89071234	      1.09220746	     11.43243252	      3.38157241	     -9.60730154	    -23.88844466	     -0.41693201	     11.64014826	     -6.33186541	      4.36406766	     29.21903228	      5.28681161	      6.16552202	    -59.87510106	     -1.04501765	     11.28169074	     18.79534277	     18.26459062	     -2.80289464	      1.34345313	     -4.49040744	      1.38387438	     -8.91865613	    -16.10151824	     33.02549841	     89.95437384	      0.00000000	      0.00000000	     -4.00659159	      7.29640374	     22.73902009	     26.99175934	     89.95437384	      0.00000000	      0.00000000
